<svg xmlns="http://www.w3.org/2000/svg" viewBox="0 0 2187 2048"><polygon fill="#88C0D0" stroke="#000" points="1728 32 1944 128 2052 416 1890 608 2106 704 1566 800 1782 896 2025 1088 1809 1184 1377 1216 1701 1280 1485 1472 1971 1568 1539 1664 1323 1696 1215 1792 1863 1856 1647 1952 999 1984 567 1920 351 1824 27 1728 891 1600 243 1536 189 1440 1053 1408 405 1344 837 1312 81 1152 1161 1120 513 1056 729 1024 270 960 918 928 1134 832 486 768 594 672 810 640 162 576 1242 544 1458 512 756 448 324 384 1620 320 108 288 972 256 648 192 1080 160 432 96 1296 64"/><circle cx="1728" cy="32" r="10"/><circle cx="1944" cy="128" r="10"/><circle cx="2052" cy="416" r="10"/><circle cx="1890" cy="608" r="10"/><circle cx="2106" cy="704" r="10"/><circle cx="1566" cy="800" r="10"/><circle cx="1782" cy="896" r="10"/><circle cx="2025" cy="1088" r="10"/><circle cx="1809" cy="1184" r="10"/><circle cx="1377" cy="1216" r="10"/><circle cx="1701" cy="1280" r="10"/><circle cx="1485" cy="1472" r="10"/><circle cx="1971" cy="1568" r="10"/><circle cx="1539" cy="1664" r="10"/><circle cx="1323" cy="1696" r="10"/><circle cx="1215" cy="1792" r="10"/><circle cx="1863" cy="1856" r="10"/><circle cx="1647" cy="1952" r="10"/><circle cx="999" cy="1984" r="10"/><circle cx="567" cy="1920" r="10"/><circle cx="351" cy="1824" r="10"/><circle cx="27" cy="1728" r="10"/><circle cx="891" cy="1600" r="10"/><circle cx="243" cy="1536" r="10"/><circle cx="189" cy="1440" r="10"/><circle cx="1053" cy="1408" r="10"/><circle cx="405" cy="1344" r="10"/><circle cx="837" cy="1312" r="10"/><circle cx="81" cy="1152" r="10"/><circle cx="1161" cy="1120" r="10"/><circle cx="513" cy="1056" r="10"/><circle cx="729" cy="1024" r="10"/><circle cx="270" cy="960" r="10"/><circle cx="918" cy="928" r="10"/><circle cx="1134" cy="832" r="10"/><circle cx="486" cy="768" r="10"/><circle cx="594" cy="672" r="10"/><circle cx="810" cy="640" r="10"/><circle cx="162" cy="576" r="10"/><circle cx="1242" cy="544" r="10"/><circle cx="1458" cy="512" r="10"/><circle cx="756" cy="448" r="10"/><circle cx="324" cy="384" r="10"/><circle cx="1620" cy="320" r="10"/><circle cx="108" cy="288" r="10"/><circle cx="972" cy="256" r="10"/><circle cx="648" cy="192" r="10"/><circle cx="1080" cy="160" r="10"/><circle cx="432" cy="96" r="10"/><circle cx="1296" cy="64" r="10"/><circle cx="675" cy="1632" r="10" fill="#BF616A"/></svg>