<svg width="1200" height="600" xmlns="http://www.w3.org/2000/svg">
<style>
  .node-label { font: 8px sans-serif; fill: #333; }
  .delay-label { font: 7px sans-serif; fill: #666; }
  .title { font: 14px sans-serif; fill: #333; font-weight: bold; }
  .comparison-label { font: 10px sans-serif; fill: #333; }
</style>
<rect width="100%" height="100%" fill="white"/>
<text x="300" y="20" class="title" text-anchor="middle">Linear Delay Model</text>
<g transform="translate(10, 40)">
<line x1="370" y1="190" x2="280" y2="100" stroke="#666666" stroke-width="2" stroke-linecap="round"/>
<text x="325" y="140" class="wire-label" text-anchor="middle">30</text>
<line x1="280" y1="100" x2="100" y2="100" stroke="#666666" stroke-width="2" stroke-linecap="round"/>
<text x="190" y="95" class="wire-label" text-anchor="middle">30</text>
<line x1="280" y1="100" x2="370" y2="100" stroke="#666666" stroke-width="2" stroke-linecap="round"/>
<text x="325" y="95" class="wire-label" text-anchor="middle">15</text>
<line x1="370" y1="100" x2="280" y2="100" stroke="#666666" stroke-width="2" stroke-linecap="round"/>
<text x="325" y="95" class="wire-label" text-anchor="middle">15</text>
<line x1="370" y1="100" x2="460" y2="100" stroke="#666666" stroke-width="2" stroke-linecap="round"/>
<text x="415" y="95" class="wire-label" text-anchor="middle">15</text>
<line x1="370" y1="190" x2="370" y2="370" stroke="#666666" stroke-width="2" stroke-linecap="round"/>
<text x="370" y="275" class="wire-label" text-anchor="middle">30</text>
<line x1="370" y1="370" x2="280" y2="460" stroke="#666666" stroke-width="2" stroke-linecap="round"/>
<text x="325" y="410" class="wire-label" text-anchor="middle">30</text>
<line x1="370" y1="370" x2="460" y2="370" stroke="#666666" stroke-width="2" stroke-linecap="round"/>
<text x="415" y="365" class="wire-label" text-anchor="middle">15</text>
<line x1="460" y1="370" x2="460" y2="280" stroke="#666666" stroke-width="2" stroke-linecap="round"/>
<text x="460" y="320" class="wire-label" text-anchor="middle">15</text>
<line x1="460" y1="370" x2="460" y2="460" stroke="#666666" stroke-width="2" stroke-linecap="round"/>
<text x="460" y="410" class="wire-label" text-anchor="middle">15</text>
<circle cx="370" cy="190" r="8" fill="#F44336" stroke="#333" stroke-width="1"/>
<text x="370" y="177" class="node-label" text-anchor="middle">n4</text>
<text x="370" y="210" class="delay-label" text-anchor="middle">d:0.0</text>
<circle cx="280" cy="100" r="6" fill="#4CAF50" stroke="#333" stroke-width="1"/>
<text x="280" y="89" class="node-label" text-anchor="middle">n1</text>
<text x="280" y="118" class="delay-label" text-anchor="middle">d:15.0</text>
<text x="280" y="128" class="delay-label" text-anchor="middle">c:18.0</text>
<circle cx="100" cy="100" r="6" fill="#4CAF50" stroke="#333" stroke-width="1"/>
<text x="100" y="89" class="node-label" text-anchor="middle">l0</text>
<text x="100" y="118" class="delay-label" text-anchor="middle">d:30.0</text>
<text x="100" y="128" class="delay-label" text-anchor="middle">c:1.0</text>
<circle cx="370" cy="100" r="4" fill="#2196F3" stroke="#333" stroke-width="1"/>
<text x="370" y="91" class="node-label" text-anchor="middle">n0</text>
<text x="370" y="116" class="delay-label" text-anchor="middle">d:22.5</text>
<circle cx="280" cy="100" r="6" fill="#4CAF50" stroke="#333" stroke-width="1"/>
<text x="280" y="89" class="node-label" text-anchor="middle">l1</text>
<text x="280" y="118" class="delay-label" text-anchor="middle">d:30.0</text>
<text x="280" y="128" class="delay-label" text-anchor="middle">c:1.0</text>
<circle cx="460" cy="100" r="6" fill="#4CAF50" stroke="#333" stroke-width="1"/>
<text x="460" y="89" class="node-label" text-anchor="middle">l2</text>
<text x="460" y="118" class="delay-label" text-anchor="middle">d:30.0</text>
<text x="460" y="128" class="delay-label" text-anchor="middle">c:1.0</text>
<circle cx="370" cy="370" r="4" fill="#2196F3" stroke="#333" stroke-width="1"/>
<text x="370" y="361" class="node-label" text-anchor="middle">n3</text>
<text x="370" y="386" class="delay-label" text-anchor="middle">d:15.0</text>
<circle cx="280" cy="460" r="6" fill="#4CAF50" stroke="#333" stroke-width="1"/>
<text x="280" y="449" class="node-label" text-anchor="middle">l5</text>
<text x="280" y="478" class="delay-label" text-anchor="middle">d:30.0</text>
<text x="280" y="488" class="delay-label" text-anchor="middle">c:1.0</text>
<circle cx="460" cy="370" r="4" fill="#2196F3" stroke="#333" stroke-width="1"/>
<text x="460" y="361" class="node-label" text-anchor="middle">n2</text>
<text x="460" y="386" class="delay-label" text-anchor="middle">d:22.5</text>
<circle cx="460" cy="280" r="6" fill="#4CAF50" stroke="#333" stroke-width="1"/>
<text x="460" y="269" class="node-label" text-anchor="middle">l3</text>
<text x="460" y="298" class="delay-label" text-anchor="middle">d:30.0</text>
<text x="460" y="308" class="delay-label" text-anchor="middle">c:1.0</text>
<circle cx="460" cy="460" r="6" fill="#4CAF50" stroke="#333" stroke-width="1"/>
<text x="460" y="449" class="node-label" text-anchor="middle">l4</text>
<text x="460" y="478" class="delay-label" text-anchor="middle">d:30.0</text>
<text x="460" y="488" class="delay-label" text-anchor="middle">c:1.0</text>
<g class="analysis-info">
<rect x="10" y="10" width="220" height="140" fill="white" stroke="#ccc" stroke-width="1" rx="5"/>
<rect x="10" y="10" width="220" height="20" fill="#f0f0f0" stroke="#ccc" stroke-width="1" rx="5"/>
<text x="20" y="25" font-family="sans-serif" font-size="12" font-weight="bold" fill="#333">Clock Tree Analysis</text>
<text x="20" y="45" font-family="monospace" font-size="11" fill="#333">
<tspan x="20" y="61">Delay Model: class recti::LinearDelayCalculator</tspan>
<tspan x="20" y="77">Max Delay: 30.000000</tspan>
<tspan x="20" y="93">Min Delay: 30.000000</tspan>
<tspan x="20" y="109">Skew: 0.000000</tspan>
<tspan x="20" y="125">Total Wirelength: 210</tspan>
<tspan x="20" y="141">Sinks: 6</tspan>
</text>
</g>
</g>
<text x="900" y="20" class="title" text-anchor="middle">Elmore Delay Model</text>
<g transform="translate(610, 40)">
<line x1="388" y1="190" x2="298" y2="100" stroke="#666666" stroke-width="2" stroke-linecap="round"/>
<text x="343" y="140" class="wire-label" text-anchor="middle">30</text>
<line x1="298" y1="100" x2="100" y2="100" stroke="#666666" stroke-width="2" stroke-linecap="round"/>
<text x="199" y="95" class="wire-label" text-anchor="middle">33</text>
<line x1="298" y1="100" x2="370" y2="100" stroke="#666666" stroke-width="2" stroke-linecap="round"/>
<text x="334" y="95" class="wire-label" text-anchor="middle">12</text>
<line x1="370" y1="100" x2="280" y2="100" stroke="#666666" stroke-width="2" stroke-linecap="round"/>
<text x="325" y="95" class="wire-label" text-anchor="middle">15</text>
<line x1="370" y1="100" x2="460" y2="100" stroke="#666666" stroke-width="2" stroke-linecap="round"/>
<text x="415" y="95" class="wire-label" text-anchor="middle">15</text>
<line x1="388" y1="190" x2="388" y2="370" stroke="#666666" stroke-width="2" stroke-linecap="round"/>
<text x="388" y="275" class="wire-label" text-anchor="middle">30</text>
<line x1="388" y1="370" x2="280" y2="460" stroke="#666666" stroke-width="2" stroke-linecap="round"/>
<text x="334" y="410" class="wire-label" text-anchor="middle">33</text>
<line x1="388" y1="370" x2="460" y2="370" stroke="#666666" stroke-width="2" stroke-linecap="round"/>
<text x="424" y="365" class="wire-label" text-anchor="middle">12</text>
<line x1="460" y1="370" x2="460" y2="280" stroke="#666666" stroke-width="2" stroke-linecap="round"/>
<text x="460" y="320" class="wire-label" text-anchor="middle">15</text>
<line x1="460" y1="370" x2="460" y2="460" stroke="#666666" stroke-width="2" stroke-linecap="round"/>
<text x="460" y="410" class="wire-label" text-anchor="middle">15</text>
<circle cx="388" cy="190" r="8" fill="#F44336" stroke="#333" stroke-width="1"/>
<text x="388" y="177" class="node-label" text-anchor="middle">n4</text>
<text x="388" y="210" class="delay-label" text-anchor="middle">d:0.0</text>
<circle cx="298" cy="100" r="4" fill="#2196F3" stroke="#333" stroke-width="1"/>
<text x="298" y="91" class="node-label" text-anchor="middle">n1</text>
<text x="298" y="116" class="delay-label" text-anchor="middle">d:63.0</text>
<circle cx="100" cy="100" r="6" fill="#4CAF50" stroke="#333" stroke-width="1"/>
<text x="100" y="89" class="node-label" text-anchor="middle">l0</text>
<text x="100" y="118" class="delay-label" text-anchor="middle">d:77.2</text>
<text x="100" y="128" class="delay-label" text-anchor="middle">c:1.0</text>
<circle cx="370" cy="100" r="4" fill="#2196F3" stroke="#333" stroke-width="1"/>
<text x="370" y="91" class="node-label" text-anchor="middle">n0</text>
<text x="370" y="116" class="delay-label" text-anchor="middle">d:74.0</text>
<circle cx="280" cy="100" r="6" fill="#4CAF50" stroke="#333" stroke-width="1"/>
<text x="280" y="89" class="node-label" text-anchor="middle">l1</text>
<text x="280" y="118" class="delay-label" text-anchor="middle">d:77.8</text>
<text x="280" y="128" class="delay-label" text-anchor="middle">c:1.0</text>
<circle cx="460" cy="100" r="6" fill="#4CAF50" stroke="#333" stroke-width="1"/>
<text x="460" y="89" class="node-label" text-anchor="middle">l2</text>
<text x="460" y="118" class="delay-label" text-anchor="middle">d:77.8</text>
<text x="460" y="128" class="delay-label" text-anchor="middle">c:1.0</text>
<circle cx="388" cy="370" r="4" fill="#2196F3" stroke="#333" stroke-width="1"/>
<text x="388" y="361" class="node-label" text-anchor="middle">n3</text>
<text x="388" y="386" class="delay-label" text-anchor="middle">d:63.0</text>
<circle cx="280" cy="460" r="6" fill="#4CAF50" stroke="#333" stroke-width="1"/>
<text x="280" y="449" class="node-label" text-anchor="middle">l5</text>
<text x="280" y="478" class="delay-label" text-anchor="middle">d:77.2</text>
<text x="280" y="488" class="delay-label" text-anchor="middle">c:1.0</text>
<circle cx="460" cy="370" r="4" fill="#2196F3" stroke="#333" stroke-width="1"/>
<text x="460" y="361" class="node-label" text-anchor="middle">n2</text>
<text x="460" y="386" class="delay-label" text-anchor="middle">d:74.0</text>
<circle cx="460" cy="280" r="6" fill="#4CAF50" stroke="#333" stroke-width="1"/>
<text x="460" y="269" class="node-label" text-anchor="middle">l3</text>
<text x="460" y="298" class="delay-label" text-anchor="middle">d:77.8</text>
<text x="460" y="308" class="delay-label" text-anchor="middle">c:1.0</text>
<circle cx="460" cy="460" r="6" fill="#4CAF50" stroke="#333" stroke-width="1"/>
<text x="460" y="449" class="node-label" text-anchor="middle">l4</text>
<text x="460" y="478" class="delay-label" text-anchor="middle">d:77.8</text>
<text x="460" y="488" class="delay-label" text-anchor="middle">c:1.0</text>
<g class="analysis-info">
<rect x="10" y="10" width="220" height="140" fill="white" stroke="#ccc" stroke-width="1" rx="5"/>
<rect x="10" y="10" width="220" height="20" fill="#f0f0f0" stroke="#ccc" stroke-width="1" rx="5"/>
<text x="20" y="25" font-family="sans-serif" font-size="12" font-weight="bold" fill="#333">Clock Tree Analysis</text>
<text x="20" y="45" font-family="monospace" font-size="11" fill="#333">
<tspan x="20" y="61">Delay Model: class recti::ElmoreDelayCalculator</tspan>
<tspan x="20" y="77">Max Delay: 77.790000</tspan>
<tspan x="20" y="93">Min Delay: 77.190000</tspan>
<tspan x="20" y="109">Skew: 0.600000</tspan>
<tspan x="20" y="125">Total Wirelength: 210</tspan>
<tspan x="20" y="141">Sinks: 6</tspan>
</text>
</g>
</g>
</svg>
