<svg width="800" height="600" xmlns="http://www.w3.org/2000/svg">
<style>
  .node-label { font: 10px sans-serif; fill: #333; }
  .delay-label { font: 8px sans-serif; fill: #666; }
  .wire-label { font: 9px sans-serif; fill: #444; }
  .analysis-label { font: 12px sans-serif; fill: #333; }
</style>
<rect width="100%" height="100%" fill="white"/>
<g class="clock-tree">
<line x1="300" y1="300" x2="300" y2="257.627" stroke="#666666" stroke-width="2" stroke-linecap="round"/>
<text x="300" y="273.814" class="wire-label" text-anchor="middle">10</text>
<line x1="300" y1="257.627" x2="253.39" y2="151.695" stroke="#666666" stroke-width="2" stroke-linecap="round"/>
<text x="276.695" y="199.661" class="wire-label" text-anchor="middle">36</text>
<line x1="253.39" y1="151.695" x2="300" y2="92.3729" stroke="#666666" stroke-width="2" stroke-linecap="round"/>
<text x="276.695" y="117.034" class="wire-label" text-anchor="middle">25</text>
<line x1="253.39" y1="151.695" x2="151.695" y2="151.695" stroke="#666666" stroke-width="2" stroke-linecap="round"/>
<text x="202.542" y="146.695" class="wire-label" text-anchor="middle">24</text>
<line x1="300" y1="257.627" x2="448.305" y2="257.627" stroke="#666666" stroke-width="2" stroke-linecap="round"/>
<text x="374.153" y="252.627" class="wire-label" text-anchor="middle">35</text>
<line x1="448.305" y1="257.627" x2="448.305" y2="151.695" stroke="#666666" stroke-width="2" stroke-linecap="round"/>
<text x="448.305" y="199.661" class="wire-label" text-anchor="middle">25</text>
<line x1="448.305" y1="257.627" x2="511.864" y2="300" stroke="#666666" stroke-width="2" stroke-linecap="round"/>
<text x="480.085" y="273.814" class="wire-label" text-anchor="middle">25</text>
<line x1="300" y1="300" x2="300" y2="346.61" stroke="#666666" stroke-width="2" stroke-linecap="round"/>
<text x="300" y="318.305" class="wire-label" text-anchor="middle">11</text>
<line x1="300" y1="346.61" x2="151.695" y2="346.61" stroke="#666666" stroke-width="2" stroke-linecap="round"/>
<text x="225.847" y="341.61" class="wire-label" text-anchor="middle">35</text>
<line x1="151.695" y1="346.61" x2="92.3729" y2="300" stroke="#666666" stroke-width="2" stroke-linecap="round"/>
<text x="122.034" y="318.305" class="wire-label" text-anchor="middle">25</text>
<line x1="151.695" y1="346.61" x2="151.695" y2="448.305" stroke="#666666" stroke-width="2" stroke-linecap="round"/>
<text x="151.695" y="392.458" class="wire-label" text-anchor="middle">24</text>
<line x1="300" y1="346.61" x2="342.373" y2="448.305" stroke="#666666" stroke-width="2" stroke-linecap="round"/>
<text x="321.186" y="392.458" class="wire-label" text-anchor="middle">34</text>
<line x1="342.373" y1="448.305" x2="448.305" y2="448.305" stroke="#666666" stroke-width="2" stroke-linecap="round"/>
<text x="395.339" y="443.305" class="wire-label" text-anchor="middle">25</text>
<line x1="342.373" y1="448.305" x2="300" y2="507.627" stroke="#666666" stroke-width="2" stroke-linecap="round"/>
<text x="321.186" y="472.966" class="wire-label" text-anchor="middle">24</text>
<circle cx="300" cy="300" r="10" fill="#F44336" stroke="#333" stroke-width="1"/>
<text x="300" y="285" class="node-label" text-anchor="middle">n6</text>
<text x="300" y="322" class="delay-label" text-anchor="middle">d:0.0</text>
<circle cx="300" cy="257.627" r="6" fill="#2196F3" stroke="#333" stroke-width="1"/>
<text x="300" y="246.627" class="node-label" text-anchor="middle">n2</text>
<text x="300" y="275.627" class="delay-label" text-anchor="middle">d:5.0</text>
<circle cx="253.39" cy="151.695" r="6" fill="#2196F3" stroke="#333" stroke-width="1"/>
<text x="253.39" y="140.695" class="node-label" text-anchor="middle">n0</text>
<text x="253.39" y="169.695" class="delay-label" text-anchor="middle">d:23.0</text>
<circle cx="300" cy="92.3729" r="8" fill="#4CAF50" stroke="#333" stroke-width="1"/>
<text x="300" y="79.3729" class="node-label" text-anchor="middle">c6</text>
<text x="300" y="112.373" class="delay-label" text-anchor="middle">d:35.5</text>
<text x="300" y="122.373" class="delay-label" text-anchor="middle">c:1.0</text>
<circle cx="151.695" cy="151.695" r="8" fill="#4CAF50" stroke="#333" stroke-width="1"/>
<text x="151.695" y="138.695" class="node-label" text-anchor="middle">c5</text>
<text x="151.695" y="171.695" class="delay-label" text-anchor="middle">d:35.0</text>
<text x="151.695" y="181.695" class="delay-label" text-anchor="middle">c:1.0</text>
<circle cx="448.305" cy="257.627" r="6" fill="#2196F3" stroke="#333" stroke-width="1"/>
<text x="448.305" y="246.627" class="node-label" text-anchor="middle">n1</text>
<text x="448.305" y="275.627" class="delay-label" text-anchor="middle">d:22.5</text>
<circle cx="448.305" cy="151.695" r="8" fill="#4CAF50" stroke="#333" stroke-width="1"/>
<text x="448.305" y="138.695" class="node-label" text-anchor="middle">c7</text>
<text x="448.305" y="171.695" class="delay-label" text-anchor="middle">d:35.0</text>
<text x="448.305" y="181.695" class="delay-label" text-anchor="middle">c:1.0</text>
<circle cx="511.864" cy="300" r="8" fill="#4CAF50" stroke="#333" stroke-width="1"/>
<text x="511.864" y="287" class="node-label" text-anchor="middle">c0</text>
<text x="511.864" y="320" class="delay-label" text-anchor="middle">d:35.0</text>
<text x="511.864" y="330" class="delay-label" text-anchor="middle">c:1.0</text>
<circle cx="300" cy="346.61" r="6" fill="#2196F3" stroke="#333" stroke-width="1"/>
<text x="300" y="335.61" class="node-label" text-anchor="middle">n5</text>
<text x="300" y="364.61" class="delay-label" text-anchor="middle">d:5.5</text>
<circle cx="151.695" cy="346.61" r="6" fill="#2196F3" stroke="#333" stroke-width="1"/>
<text x="151.695" y="335.61" class="node-label" text-anchor="middle">n3</text>
<text x="151.695" y="364.61" class="delay-label" text-anchor="middle">d:23.0</text>
<circle cx="92.3729" cy="300" r="8" fill="#4CAF50" stroke="#333" stroke-width="1"/>
<text x="92.3729" y="287" class="node-label" text-anchor="middle">c4</text>
<text x="92.3729" y="320" class="delay-label" text-anchor="middle">d:35.5</text>
<text x="92.3729" y="330" class="delay-label" text-anchor="middle">c:1.0</text>
<circle cx="151.695" cy="448.305" r="8" fill="#4CAF50" stroke="#333" stroke-width="1"/>
<text x="151.695" y="435.305" class="node-label" text-anchor="middle">c3</text>
<text x="151.695" y="468.305" class="delay-label" text-anchor="middle">d:35.0</text>
<text x="151.695" y="478.305" class="delay-label" text-anchor="middle">c:1.0</text>
<circle cx="342.373" cy="448.305" r="6" fill="#2196F3" stroke="#333" stroke-width="1"/>
<text x="342.373" y="437.305" class="node-label" text-anchor="middle">n4</text>
<text x="342.373" y="466.305" class="delay-label" text-anchor="middle">d:22.5</text>
<circle cx="448.305" cy="448.305" r="8" fill="#4CAF50" stroke="#333" stroke-width="1"/>
<text x="448.305" y="435.305" class="node-label" text-anchor="middle">c1</text>
<text x="448.305" y="468.305" class="delay-label" text-anchor="middle">d:35.0</text>
<text x="448.305" y="478.305" class="delay-label" text-anchor="middle">c:1.0</text>
<circle cx="300" cy="507.627" r="8" fill="#4CAF50" stroke="#333" stroke-width="1"/>
<text x="300" y="494.627" class="node-label" text-anchor="middle">c2</text>
<text x="300" y="527.627" class="delay-label" text-anchor="middle">d:34.5</text>
<text x="300" y="537.627" class="delay-label" text-anchor="middle">c:1.0</text>
<g class="analysis-info">
<rect x="10" y="10" width="220" height="140" fill="white" stroke="#ccc" stroke-width="1" rx="5"/>
<rect x="10" y="10" width="220" height="20" fill="#f0f0f0" stroke="#ccc" stroke-width="1" rx="5"/>
<text x="20" y="25" font-family="sans-serif" font-size="12" font-weight="bold" fill="#333">Clock Tree Analysis</text>
<text x="20" y="45" font-family="monospace" font-size="11" fill="#333">
<tspan x="20" y="61">Delay Model: class recti::LinearDelayCalculator</tspan>
<tspan x="20" y="77">Max Delay: 35.500000</tspan>
<tspan x="20" y="93">Min Delay: 34.500000</tspan>
<tspan x="20" y="109">Skew: 1.000000</tspan>
<tspan x="20" y="125">Total Wirelength: 358</tspan>
<tspan x="20" y="141">Sinks: 8</tspan>
</text>
</g>
</g>
</svg>
