<svg width="800" height="600" xmlns="http://www.w3.org/2000/svg">
<style>
  .node-label { font: 10px sans-serif; fill: #333; }
  .delay-label { font: 8px sans-serif; fill: #666; }
  .wire-label { font: 9px sans-serif; fill: #444; }
  .analysis-label { font: 12px sans-serif; fill: #333; }
</style>
<rect width="100%" height="100%" fill="white"/>
<g class="clock-tree">
<line x1="545.833" y1="149.167" x2="265.833" y2="108.333" stroke="#666666" stroke-width="2" stroke-linecap="round"/>
<text x="405.833" y="123.75" class="wire-label" text-anchor="middle">55</text>
<line x1="265.833" y1="108.333" x2="108.333" y2="108.333" stroke="#666666" stroke-width="2" stroke-linecap="round"/>
<text x="187.083" y="103.333" class="wire-label" text-anchor="middle">27</text>
<line x1="265.833" y1="108.333" x2="265.833" y2="108.333" stroke="#666666" stroke-width="2" stroke-linecap="round"/>
<line x1="265.833" y1="108.333" x2="458.333" y2="108.333" stroke="#666666" stroke-width="2" stroke-linecap="round"/>
<text x="362.083" y="103.333" class="wire-label" text-anchor="middle">33</text>
<line x1="265.833" y1="108.333" x2="225" y2="283.333" stroke="#666666" stroke-width="2" stroke-linecap="round"/>
<text x="245.417" y="190.833" class="wire-label" text-anchor="middle">37</text>
<line x1="545.833" y1="149.167" x2="545.833" y2="435" stroke="#666666" stroke-width="2" stroke-linecap="round"/>
<text x="545.833" y="287.083" class="wire-label" text-anchor="middle">49</text>
<line x1="545.833" y1="435" x2="341.667" y2="458.333" stroke="#666666" stroke-width="2" stroke-linecap="round"/>
<text x="443.75" y="441.667" class="wire-label" text-anchor="middle">39</text>
<line x1="545.833" y1="435" x2="575" y2="435" stroke="#666666" stroke-width="2" stroke-linecap="round"/>
<text x="560.417" y="430" class="wire-label" text-anchor="middle">5</text>
<line x1="575" y1="435" x2="575" y2="283.333" stroke="#666666" stroke-width="2" stroke-linecap="round"/>
<text x="575" y="354.167" class="wire-label" text-anchor="middle">26</text>
<line x1="575" y1="435" x2="691.667" y2="458.333" stroke="#666666" stroke-width="2" stroke-linecap="round"/>
<text x="633.333" y="441.667" class="wire-label" text-anchor="middle">24</text>
<circle cx="545.833" cy="149.167" r="10" fill="#F44336" stroke="#333" stroke-width="1"/>
<text x="545.833" y="134.167" class="node-label" text-anchor="middle">n4</text>
<text x="545.833" y="171.167" class="delay-label" text-anchor="middle">d:0.0</text>
<circle cx="265.833" cy="108.333" r="6" fill="#2196F3" stroke="#333" stroke-width="1"/>
<text x="265.833" y="97.3333" class="node-label" text-anchor="middle">n1</text>
<text x="265.833" y="126.333" class="delay-label" text-anchor="middle">d:164.4</text>
<circle cx="108.333" cy="108.333" r="8" fill="#4CAF50" stroke="#333" stroke-width="1"/>
<text x="108.333" y="95.3333" class="node-label" text-anchor="middle">v0</text>
<text x="108.333" y="128.333" class="delay-label" text-anchor="middle">d:174.4</text>
<text x="108.333" y="138.333" class="delay-label" text-anchor="middle">c:1.0</text>
<circle cx="265.833" cy="108.333" r="6" fill="#2196F3" stroke="#333" stroke-width="1"/>
<text x="265.833" y="97.3333" class="node-label" text-anchor="middle">n0</text>
<text x="265.833" y="126.333" class="delay-label" text-anchor="middle">d:164.4</text>
<circle cx="458.333" cy="108.333" r="8" fill="#4CAF50" stroke="#333" stroke-width="1"/>
<text x="458.333" y="95.3333" class="node-label" text-anchor="middle">v3</text>
<text x="458.333" y="128.333" class="delay-label" text-anchor="middle">d:183.6</text>
<text x="458.333" y="138.333" class="delay-label" text-anchor="middle">c:2.5</text>
<circle cx="225" cy="283.333" r="8" fill="#4CAF50" stroke="#333" stroke-width="1"/>
<text x="225" y="270.333" class="node-label" text-anchor="middle">v1</text>
<text x="225" y="303.333" class="delay-label" text-anchor="middle">d:183.7</text>
<text x="225" y="313.333" class="delay-label" text-anchor="middle">c:1.5</text>
<circle cx="545.833" cy="435" r="6" fill="#2196F3" stroke="#333" stroke-width="1"/>
<text x="545.833" y="424" class="node-label" text-anchor="middle">n3</text>
<text x="545.833" y="453" class="delay-label" text-anchor="middle">d:157.8</text>
<circle cx="341.667" cy="458.333" r="8" fill="#4CAF50" stroke="#333" stroke-width="1"/>
<text x="341.667" y="445.333" class="node-label" text-anchor="middle">v2</text>
<text x="341.667" y="478.333" class="delay-label" text-anchor="middle">d:180.8</text>
<text x="341.667" y="488.333" class="delay-label" text-anchor="middle">c:2.0</text>
<circle cx="575" cy="435" r="6" fill="#2196F3" stroke="#333" stroke-width="1"/>
<text x="575" y="424" class="node-label" text-anchor="middle">n2</text>
<text x="575" y="453" class="delay-label" text-anchor="middle">d:166.3</text>
<circle cx="575" cy="283.333" r="8" fill="#4CAF50" stroke="#333" stroke-width="1"/>
<text x="575" y="270.333" class="node-label" text-anchor="middle">v4</text>
<text x="575" y="303.333" class="delay-label" text-anchor="middle">d:180.8</text>
<text x="575" y="313.333" class="delay-label" text-anchor="middle">c:3.0</text>
<circle cx="691.667" cy="458.333" r="8" fill="#4CAF50" stroke="#333" stroke-width="1"/>
<text x="691.667" y="445.333" class="node-label" text-anchor="middle">v5</text>
<text x="691.667" y="478.333" class="delay-label" text-anchor="middle">d:180.4</text>
<text x="691.667" y="488.333" class="delay-label" text-anchor="middle">c:3.5</text>
<g class="analysis-info">
<rect x="10" y="10" width="220" height="140" fill="white" stroke="#ccc" stroke-width="1" rx="5"/>
<rect x="10" y="10" width="220" height="20" fill="#f0f0f0" stroke="#ccc" stroke-width="1" rx="5"/>
<text x="20" y="25" font-family="sans-serif" font-size="12" font-weight="bold" fill="#333">Clock Tree Analysis</text>
<text x="20" y="45" font-family="monospace" font-size="11" fill="#333">
<tspan x="20" y="61">Delay Model: class recti::ElmoreDelayCalculator</tspan>
<tspan x="20" y="77">Max Delay: 183.690000</tspan>
<tspan x="20" y="93">Min Delay: 174.440000</tspan>
<tspan x="20" y="109">Skew: 9.250000</tspan>
<tspan x="20" y="125">Total Wirelength: 295</tspan>
<tspan x="20" y="141">Sinks: 6</tspan>
</text>
</g>
</g>
</svg>
