<svg xmlns="http://www.w3.org/2000/svg" width="1000" height="1000"><rect width="100%" height="100%" fill="#fff"/><defs><marker id="arrowhead" markerHeight="7" markerWidth="10" orient="auto" refX="9" refY="3.5"><polygon fill="#000" points="0 0 10 3.5 0 7"/></marker></defs><line x1="50" x2="213.636" y1="714.935" y2="548.701" stroke="red" stroke-width="2" marker-end="url(#arrowhead)"/><line x1="213.636" x2="213.636" y1="548.701" y2="548.701" stroke="orange" stroke-width="2" marker-end="url(#arrowhead)"/><line x1="213.636" x2="529.221" y1="548.701" y2="493.29" stroke="orange" stroke-width="2" marker-end="url(#arrowhead)"/><line x1="529.221" x2="634.416" y1="493.29" y2="493.29" stroke="orange" stroke-width="2" marker-end="url(#arrowhead)"/><line x1="634.416" x2="844.805" y1="493.29" y2="770.346" stroke="green" stroke-width="2" marker-end="url(#arrowhead)"/><line x1="529.221" x2="529.221" y1="493.29" y2="327.056" stroke="#00f" stroke-width="2" marker-end="url(#arrowhead)"/><line x1="213.636" x2="318.831" y1="548.701" y2="105.411" stroke="red" stroke-width="2" marker-end="url(#arrowhead)"/><line x1="318.831" x2="318.831" y1="105.411" y2="50" stroke="red" stroke-width="2" marker-end="url(#arrowhead)"/><line x1="318.831" x2="739.61" y1="105.411" y2="105.411" stroke="red" stroke-width="2" marker-end="url(#arrowhead)"/><line x1="739.61" x2="950" y1="105.411" y2="271.645" stroke="#00f" stroke-width="2" marker-end="url(#arrowhead)"/><rect width="129.87" height="216.45" x="730.952" y="399.784" fill="pink" stroke="#000" stroke-width="1"/><rect width="129.87" height="129.87" x="254.762" y="226.623" fill="pink" stroke="#000" stroke-width="1"/><circle cx="529.221" cy="493.29" r="6" fill="#00f" stroke="#000" stroke-width="1"/><text x="537.221" y="497.29" fill="#000" font-family="Arial" font-size="10">S2</text><text x="529.221" y="482.29" fill="gray" font-family="Arial" font-size="8" text-anchor="middle">(((1134, 100), 1216))</text><circle cx="634.416" cy="493.29" r="6" fill="green" stroke="#000" stroke-width="1"/><text x="642.416" y="497.29" fill="#000" font-family="Arial" font-size="10">T2</text><text x="634.416" y="482.29" fill="gray" font-family="Arial" font-size="8" text-anchor="middle">(((1377, 100), 1216))</text><circle cx="50" cy="714.935" r="8" fill="red" stroke="#000" stroke-width="1"/><text x="60" y="718.935" fill="#000" font-family="Arial" font-size="10">S</text><text x="50" y="701.935" fill="gray" font-family="Arial" font-size="8" text-anchor="middle">(((27, 0), 1728))</text><circle cx="213.636" cy="548.701" r="6" fill="#00f" stroke="#000" stroke-width="1"/><text x="221.636" y="552.701" fill="#000" font-family="Arial" font-size="10">S1</text><text x="213.636" y="537.701" fill="gray" font-family="Arial" font-size="8" text-anchor="middle">(((405, 0), 1344))</text><circle cx="213.636" cy="548.701" r="6" fill="green" stroke="#000" stroke-width="1"/><text x="221.636" y="552.701" fill="#000" font-family="Arial" font-size="10">T1</text><text x="213.636" y="537.701" fill="gray" font-family="Arial" font-size="8" text-anchor="middle">(((405, 100), 1344))</text><circle cx="318.831" cy="50" r="6" fill="green" stroke="#000" stroke-width="1"/><text x="326.831" y="54" fill="#000" font-family="Arial" font-size="10">T3</text><text x="318.831" y="39" fill="gray" font-family="Arial" font-size="8" text-anchor="middle">(((648, 0), 192))</text><circle cx="529.221" cy="327.056" r="6" fill="green" stroke="#000" stroke-width="1"/><text x="537.221" y="331.056" fill="#000" font-family="Arial" font-size="10">T4</text><text x="529.221" y="316.056" fill="gray" font-family="Arial" font-size="8" text-anchor="middle">(((1134, 200), 832))</text><circle cx="844.805" cy="770.346" r="6" fill="green" stroke="#000" stroke-width="1"/><text x="852.805" y="774.346" fill="#000" font-family="Arial" font-size="10">T5</text><text x="844.805" y="759.346" fill="gray" font-family="Arial" font-size="8" text-anchor="middle">(((1863, 300), 1856))</text><circle cx="739.61" cy="105.411" r="6" fill="green" stroke="#000" stroke-width="1"/><text x="747.61" y="109.411" fill="#000" font-family="Arial" font-size="10">T6</text><text x="739.61" y="94.411" fill="gray" font-family="Arial" font-size="8" text-anchor="middle">(((1620, 0), 320))</text><circle cx="318.831" cy="105.411" r="6" fill="#00f" stroke="#000" stroke-width="1"/><text x="326.831" y="109.411" fill="#000" font-family="Arial" font-size="10">S3</text><text x="318.831" y="94.411" fill="gray" font-family="Arial" font-size="8" text-anchor="middle">(((648, 0), 320))</text><circle cx="950" cy="271.645" r="6" fill="green" stroke="#000" stroke-width="1"/><text x="958" y="275.645" fill="#000" font-family="Arial" font-size="10">T7</text><text x="950" y="260.645" fill="gray" font-family="Arial" font-size="8" text-anchor="middle">(((2106, 200), 704))</text><text x="20" y="20" font-family="Arial" font-size="12" font-weight="bold">Legend:</text><circle cx="20" cy="36" r="4" fill="red" stroke="#000"/><text x="30" y="40" font-family="Arial" font-size="10">Source</text><circle cx="20" cy="56" r="4" fill="#00f" stroke="#000"/><text x="30" y="60" font-family="Arial" font-size="10">Steiner</text><circle cx="20" cy="76" r="4" fill="green" stroke="#000"/><text x="30" y="80" font-family="Arial" font-size="10">Terminal</text><text x="20" y="110" font-family="Arial" font-size="10" font-weight="bold">Statistics:</text><text x="20" y="125" font-family="Arial" font-size="9">Total Nodes: 11</text><text x="20" y="140" font-family="Arial" font-size="9">Terminals: 7</text><text x="20" y="155" font-family="Arial" font-size="9">Steiner: 3</text><text x="20" y="170" font-family="Arial" font-size="9">Wirelength: 7209</text></svg>