<svg width="800" height="600" xmlns="http://www.w3.org/2000/svg">
<rect width="100%" height="100%" fill="white"/>
<defs>
<marker id="arrowhead" markerWidth="10" markerHeight="7" refX="9" refY="3.5" orient="auto">
<polygon points="0 0, 10 3.5, 0 7" fill="black"/>
</marker>
</defs>
<line x1="145.954" y1="50" x2="145.954" y2="95.1066" stroke="black" stroke-width="2" marker-end="url(#arrowhead)"/>
<line x1="145.954" y1="95.1066" x2="145.954" y2="235.074" stroke="black" stroke-width="2" marker-end="url(#arrowhead)"/>
<line x1="145.954" y1="235.074" x2="50" y2="410.033" stroke="black" stroke-width="2" marker-end="url(#arrowhead)"/>
<line x1="145.954" y1="235.074" x2="249.289" y2="235.074" stroke="black" stroke-width="2" marker-end="url(#arrowhead)"/>
<line x1="249.289" y1="235.074" x2="249.289" y2="270.066" stroke="black" stroke-width="2" marker-end="url(#arrowhead)"/>
<line x1="249.289" y1="235.074" x2="382.149" y2="235.074" stroke="black" stroke-width="2" marker-end="url(#arrowhead)"/>
<line x1="382.149" y1="235.074" x2="448.578" y2="235.074" stroke="black" stroke-width="2" marker-end="url(#arrowhead)"/>
<line x1="448.578" y1="235.074" x2="515.008" y2="235.074" stroke="black" stroke-width="2" marker-end="url(#arrowhead)"/>
<line x1="448.578" y1="235.074" x2="448.578" y2="375.041" stroke="black" stroke-width="2" marker-end="url(#arrowhead)"/>
<line x1="448.578" y1="375.041" x2="448.578" y2="550" stroke="black" stroke-width="2" marker-end="url(#arrowhead)"/>
<line x1="448.578" y1="375.041" x2="315.719" y2="375.041" stroke="black" stroke-width="2" marker-end="url(#arrowhead)"/>
<line x1="382.149" y1="235.074" x2="382.149" y2="130.098" stroke="black" stroke-width="2" marker-end="url(#arrowhead)"/>
<line x1="145.954" y1="95.1066" x2="116.43" y2="95.1066" stroke="black" stroke-width="2" marker-end="url(#arrowhead)"/>
<circle cx="448.578" cy="375.041" r="6" fill="blue" stroke="black" stroke-width="1"/>
<text x="456.578" y="379.041" font-family="Arial" font-size="10" fill="black">S2</text>
<text x="448.578" y="364.041" font-family="Arial" font-size="8" fill="gray" text-anchor="middle">((1863, 1216))</text>
<circle cx="515.008" cy="235.074" r="6" fill="green" stroke="black" stroke-width="1"/>
<text x="523.008" y="239.074" font-family="Arial" font-size="10" fill="black">T2</text>
<text x="515.008" y="224.074" font-family="Arial" font-size="8" fill="gray" text-anchor="middle">((2106, 704))</text>
<circle cx="145.954" cy="50" r="8" fill="red" stroke="black" stroke-width="1"/>
<text x="155.954" y="54" font-family="Arial" font-size="10" fill="black">S</text>
<text x="145.954" y="37" font-family="Arial" font-size="8" fill="gray" text-anchor="middle">((756, 27))</text>
<circle cx="448.578" cy="235.074" r="6" fill="blue" stroke="black" stroke-width="1"/>
<text x="456.578" y="239.074" font-family="Arial" font-size="10" fill="black">S1</text>
<text x="448.578" y="224.074" font-family="Arial" font-size="8" fill="gray" text-anchor="middle">((1863, 704))</text>
<circle cx="448.578" cy="550" r="6" fill="green" stroke="black" stroke-width="1"/>
<text x="456.578" y="554" font-family="Arial" font-size="10" fill="black">T1</text>
<text x="448.578" y="539" font-family="Arial" font-size="8" fill="gray" text-anchor="middle">((1863, 1856))</text>
<circle cx="145.954" cy="235.074" r="6" fill="blue" stroke="black" stroke-width="1"/>
<text x="153.954" y="239.074" font-family="Arial" font-size="10" fill="black">S3</text>
<text x="145.954" y="224.074" font-family="Arial" font-size="8" fill="gray" text-anchor="middle">((756, 704))</text>
<circle cx="315.719" cy="375.041" r="6" fill="green" stroke="black" stroke-width="1"/>
<text x="323.719" y="379.041" font-family="Arial" font-size="10" fill="black">T3</text>
<text x="315.719" y="364.041" font-family="Arial" font-size="8" fill="gray" text-anchor="middle">((1377, 1216))</text>
<circle cx="50" cy="410.033" r="6" fill="green" stroke="black" stroke-width="1"/>
<text x="58" y="414.033" font-family="Arial" font-size="10" fill="black">T4</text>
<text x="50" y="399.033" font-family="Arial" font-size="8" fill="gray" text-anchor="middle">((405, 1344))</text>
<circle cx="249.289" cy="270.066" r="6" fill="green" stroke="black" stroke-width="1"/>
<text x="257.289" y="274.066" font-family="Arial" font-size="10" fill="black">T5</text>
<text x="249.289" y="259.066" font-family="Arial" font-size="8" fill="gray" text-anchor="middle">((1134, 832))</text>
<circle cx="249.289" cy="235.074" r="6" fill="blue" stroke="black" stroke-width="1"/>
<text x="257.289" y="239.074" font-family="Arial" font-size="10" fill="black">S4</text>
<text x="249.289" y="224.074" font-family="Arial" font-size="8" fill="gray" text-anchor="middle">((1134, 704))</text>
<circle cx="382.149" cy="130.098" r="6" fill="green" stroke="black" stroke-width="1"/>
<text x="390.149" y="134.098" font-family="Arial" font-size="10" fill="black">T6</text>
<text x="382.149" y="119.098" font-family="Arial" font-size="8" fill="gray" text-anchor="middle">((1620, 320))</text>
<circle cx="382.149" cy="235.074" r="6" fill="blue" stroke="black" stroke-width="1"/>
<text x="390.149" y="239.074" font-family="Arial" font-size="10" fill="black">S5</text>
<text x="382.149" y="224.074" font-family="Arial" font-size="8" fill="gray" text-anchor="middle">((1620, 704))</text>
<circle cx="116.43" cy="95.1066" r="6" fill="green" stroke="black" stroke-width="1"/>
<text x="124.43" y="99.1066" font-family="Arial" font-size="10" fill="black">T7</text>
<text x="116.43" y="84.1066" font-family="Arial" font-size="8" fill="gray" text-anchor="middle">((648, 192))</text>
<circle cx="145.954" cy="95.1066" r="6" fill="blue" stroke="black" stroke-width="1"/>
<text x="153.954" y="99.1066" font-family="Arial" font-size="10" fill="black">S6</text>
<text x="145.954" y="84.1066" font-family="Arial" font-size="8" fill="gray" text-anchor="middle">((756, 192))</text>
<text x="20" y="20" font-family="Arial" font-size="12" font-weight="bold">Legend:</text>
<circle cx="20" cy="36" r="4" fill="red" stroke="black"/>
<text x="30" y="40" font-family="Arial" font-size="10">Source</text>
<circle cx="20" cy="56" r="4" fill="blue" stroke="black"/>
<text x="30" y="60" font-family="Arial" font-size="10">Steiner</text>
<circle cx="20" cy="76" r="4" fill="green" stroke="black"/>
<text x="30" y="80" font-family="Arial" font-size="10">Terminal</text>
<text x="20" y="110" font-family="Arial" font-size="10" font-weight="bold">Statistics:</text>
<text x="20" y="125" font-family="Arial" font-size="9">Total Nodes: 14</text>
<text x="20" y="140" font-family="Arial" font-size="9">Terminals: 7</text>
<text x="20" y="155" font-family="Arial" font-size="9">Steiner: 6</text>
<text x="20" y="170" font-family="Arial" font-size="9">Wirelength: 5276</text>
</svg>
