<svg xmlns="http://www.w3.org/2000/svg" width="1000" height="1000"><rect width="100%" height="100%" fill="#fff"/><defs><marker id="arrowhead" markerHeight="7" markerWidth="10" orient="auto" refX="9" refY="3.5"><polygon fill="#000" points="0 0 10 3.5 0 7"/></marker></defs><line x1="575.721" x2="575.721" y1="603.846" y2="396.154" stroke="red" stroke-width="2" marker-end="url(#arrowhead)"/><line x1="575.721" x2="444.291" y1="396.154" y2="396.154" stroke="#00f" stroke-width="2" marker-end="url(#arrowhead)"/><line x1="575.721" x2="575.721" y1="396.154" y2="119.231" stroke="red" stroke-width="2" marker-end="url(#arrowhead)"/><line x1="575.721" x2="707.151" y1="119.231" y2="119.231" stroke="red" stroke-width="2" marker-end="url(#arrowhead)"/><line x1="575.721" x2="181.43" y1="119.231" y2="50" stroke="red" stroke-width="2" marker-end="url(#arrowhead)"/><line x1="575.721" x2="575.721" y1="603.846" y2="673.077" stroke="orange" stroke-width="2" marker-end="url(#arrowhead)"/><line x1="575.721" x2="50" y1="673.077" y2="673.077" stroke="orange" stroke-width="2" marker-end="url(#arrowhead)"/><line x1="575.721" x2="838.582" y1="673.077" y2="950" stroke="green" stroke-width="2" marker-end="url(#arrowhead)"/><circle cx="575.721" cy="673.077" r="6" fill="#00f" stroke="#000" stroke-width="1"/><text x="583.721" y="677.077" fill="#000" font-family="Arial" font-size="10">S2</text><text x="575.721" y="662.077" fill="gray" font-family="Arial" font-size="8" text-anchor="middle">(((1377, 100), 1344))</text><circle cx="707.151" cy="119.231" r="6" fill="green" stroke="#000" stroke-width="1"/><text x="715.151" y="123.231" fill="#000" font-family="Arial" font-size="10">T2</text><text x="707.151" y="108.231" fill="gray" font-family="Arial" font-size="8" text-anchor="middle">(((1620, 0), 320))</text><circle cx="575.721" cy="603.846" r="8" fill="red" stroke="#000" stroke-width="1"/><text x="585.721" y="607.846" fill="#000" font-family="Arial" font-size="10">S</text><text x="575.721" y="590.846" fill="gray" font-family="Arial" font-size="8" text-anchor="middle">(((1377, 0), 1216))</text><circle cx="575.721" cy="396.154" r="6" fill="#00f" stroke="#000" stroke-width="1"/><text x="583.721" y="400.154" fill="#000" font-family="Arial" font-size="10">S1</text><text x="575.721" y="385.154" fill="gray" font-family="Arial" font-size="8" text-anchor="middle">(((1377, 0), 832))</text><circle cx="444.291" cy="396.154" r="6" fill="green" stroke="#000" stroke-width="1"/><text x="452.291" y="400.154" fill="#000" font-family="Arial" font-size="10">T1</text><text x="444.291" y="385.154" fill="gray" font-family="Arial" font-size="8" text-anchor="middle">(((1134, 200), 832))</text><circle cx="50" cy="673.077" r="6" fill="green" stroke="#000" stroke-width="1"/><text x="58" y="677.077" fill="#000" font-family="Arial" font-size="10">T3</text><text x="50" y="662.077" fill="gray" font-family="Arial" font-size="8" text-anchor="middle">(((405, 100), 1344))</text><circle cx="838.582" cy="950" r="6" fill="green" stroke="#000" stroke-width="1"/><text x="846.582" y="954" fill="#000" font-family="Arial" font-size="10">T4</text><text x="838.582" y="939" fill="gray" font-family="Arial" font-size="8" text-anchor="middle">(((1863, 300), 1856))</text><circle cx="181.43" cy="50" r="6" fill="green" stroke="#000" stroke-width="1"/><text x="189.43" y="54" fill="#000" font-family="Arial" font-size="10">T5</text><text x="181.43" y="39" fill="gray" font-family="Arial" font-size="8" text-anchor="middle">(((648, 0), 192))</text><circle cx="575.721" cy="119.231" r="6" fill="#00f" stroke="#000" stroke-width="1"/><text x="583.721" y="123.231" fill="#000" font-family="Arial" font-size="10">S3</text><text x="575.721" y="108.231" fill="gray" font-family="Arial" font-size="8" text-anchor="middle">(((1377, 0), 320))</text><text x="20" y="20" font-family="Arial" font-size="12" font-weight="bold">Legend:</text><circle cx="20" cy="36" r="4" fill="red" stroke="#000"/><text x="30" y="40" font-family="Arial" font-size="10">Source</text><circle cx="20" cy="56" r="4" fill="#00f" stroke="#000"/><text x="30" y="60" font-family="Arial" font-size="10">Steiner</text><circle cx="20" cy="76" r="4" fill="green" stroke="#000"/><text x="30" y="80" font-family="Arial" font-size="10">Terminal</text><text x="20" y="110" font-family="Arial" font-size="10" font-weight="bold">Statistics:</text><text x="20" y="125" font-family="Arial" font-size="9">Total Nodes: 9</text><text x="20" y="140" font-family="Arial" font-size="9">Terminals: 5</text><text x="20" y="155" font-family="Arial" font-size="9">Steiner: 3</text><text x="20" y="170" font-family="Arial" font-size="9">Wirelength: 4837</text></svg>