<svg width="800" height="600" xmlns="http://www.w3.org/2000/svg">
<rect width="100%" height="100%" fill="white"/>
<defs>
<marker id="arrowhead" markerWidth="10" markerHeight="7" refX="9" refY="3.5" orient="auto">
<polygon points="0 0, 10 3.5, 0 7" fill="black"/>
</marker>
</defs>
<line x1="50" y1="511.538" x2="601.683" y2="550" stroke="green" stroke-width="2" marker-end="url(#arrowhead)"/>
<line x1="50" y1="511.538" x2="163.582" y2="396.154" stroke="red" stroke-width="2" marker-end="url(#arrowhead)"/>
<line x1="163.582" y1="396.154" x2="382.632" y2="357.692" stroke="red" stroke-width="2" marker-end="url(#arrowhead)"/>
<line x1="382.632" y1="357.692" x2="382.632" y2="242.308" stroke="red" stroke-width="2" marker-end="url(#arrowhead)"/>
<line x1="382.632" y1="242.308" x2="382.632" y2="242.308" stroke="blue" stroke-width="2" marker-end="url(#arrowhead)"/>
<line x1="382.632" y1="242.308" x2="382.632" y2="203.846" stroke="red" stroke-width="2" marker-end="url(#arrowhead)"/>
<line x1="382.632" y1="203.846" x2="528.666" y2="203.846" stroke="red" stroke-width="2" marker-end="url(#arrowhead)"/>
<line x1="528.666" y1="203.846" x2="674.7" y2="203.846" stroke="blue" stroke-width="2" marker-end="url(#arrowhead)"/>
<line x1="528.666" y1="203.846" x2="528.666" y2="88.4615" stroke="red" stroke-width="2" marker-end="url(#arrowhead)"/>
<line x1="382.632" y1="203.846" x2="236.599" y2="50" stroke="red" stroke-width="2" marker-end="url(#arrowhead)"/>
<line x1="382.632" y1="357.692" x2="455.649" y2="357.692" stroke="orange" stroke-width="2" marker-end="url(#arrowhead)"/>
<line x1="163.582" y1="396.154" x2="163.582" y2="396.154" stroke="orange" stroke-width="2" marker-end="url(#arrowhead)"/>
<rect x="522.656" y="292.788" width="90.1442" height="150.24" fill="pink" stroke="black" stroke-width="1"/>
<rect x="192.127" y="172.596" width="90.1442" height="90.1442" fill="pink" stroke="black" stroke-width="1"/>
<circle cx="163.582" cy="396.154" r="6" fill="blue" stroke="black" stroke-width="1"/>
<text x="171.582" y="400.154" font-family="Arial" font-size="10" fill="black">S5</text>
<text x="163.582" y="385.154" font-family="Arial" font-size="8" fill="gray" text-anchor="middle">(((405, 0), 1344))</text>
<circle cx="382.632" cy="357.692" r="6" fill="blue" stroke="black" stroke-width="1"/>
<text x="390.632" y="361.692" font-family="Arial" font-size="10" fill="black">S4</text>
<text x="382.632" y="346.692" font-family="Arial" font-size="8" fill="gray" text-anchor="middle">(((1134, 0), 1216))</text>
<circle cx="163.582" cy="396.154" r="6" fill="green" stroke="black" stroke-width="1"/>
<text x="171.582" y="400.154" font-family="Arial" font-size="10" fill="black">T7</text>
<text x="163.582" y="385.154" font-family="Arial" font-size="8" fill="gray" text-anchor="middle">(((405, 100), 1344))</text>
<circle cx="455.649" cy="357.692" r="6" fill="green" stroke="black" stroke-width="1"/>
<text x="463.649" y="361.692" font-family="Arial" font-size="10" fill="black">T6</text>
<text x="455.649" y="346.692" font-family="Arial" font-size="8" fill="gray" text-anchor="middle">(((1377, 100), 1216))</text>
<circle cx="236.599" cy="50" r="6" fill="green" stroke="black" stroke-width="1"/>
<text x="244.599" y="54" font-family="Arial" font-size="10" fill="black">T5</text>
<text x="236.599" y="39" font-family="Arial" font-size="8" fill="gray" text-anchor="middle">(((648, 0), 192))</text>
<circle cx="382.632" cy="242.308" r="6" fill="blue" stroke="black" stroke-width="1"/>
<text x="390.632" y="246.308" font-family="Arial" font-size="10" fill="black">S2</text>
<text x="382.632" y="231.308" font-family="Arial" font-size="8" fill="gray" text-anchor="middle">(((1134, 0), 832))</text>
<circle cx="382.632" cy="203.846" r="6" fill="blue" stroke="black" stroke-width="1"/>
<text x="390.632" y="207.846" font-family="Arial" font-size="10" fill="black">S3</text>
<text x="382.632" y="192.846" font-family="Arial" font-size="8" fill="gray" text-anchor="middle">(((1134, 0), 704))</text>
<circle cx="382.632" cy="242.308" r="6" fill="green" stroke="black" stroke-width="1"/>
<text x="390.632" y="246.308" font-family="Arial" font-size="10" fill="black">T4</text>
<text x="382.632" y="231.308" font-family="Arial" font-size="8" fill="gray" text-anchor="middle">(((1134, 200), 832))</text>
<circle cx="601.683" cy="550" r="6" fill="green" stroke="black" stroke-width="1"/>
<text x="609.683" y="554" font-family="Arial" font-size="10" fill="black">T3</text>
<text x="601.683" y="539" font-family="Arial" font-size="8" fill="gray" text-anchor="middle">(((1863, 300), 1856))</text>
<circle cx="528.666" cy="203.846" r="6" fill="blue" stroke="black" stroke-width="1"/>
<text x="536.666" y="207.846" font-family="Arial" font-size="10" fill="black">S1</text>
<text x="528.666" y="192.846" font-family="Arial" font-size="8" fill="gray" text-anchor="middle">(((1620, 0), 704))</text>
<circle cx="528.666" cy="88.4615" r="6" fill="green" stroke="black" stroke-width="1"/>
<text x="536.666" y="92.4615" font-family="Arial" font-size="10" fill="black">T2</text>
<text x="528.666" y="77.4615" font-family="Arial" font-size="8" fill="gray" text-anchor="middle">(((1620, 0), 320))</text>
<circle cx="674.7" cy="203.846" r="6" fill="green" stroke="black" stroke-width="1"/>
<text x="682.7" y="207.846" font-family="Arial" font-size="10" fill="black">T1</text>
<text x="674.7" y="192.846" font-family="Arial" font-size="8" fill="gray" text-anchor="middle">(((2106, 200), 704))</text>
<circle cx="50" cy="511.538" r="8" fill="red" stroke="black" stroke-width="1"/>
<text x="60" y="515.538" font-family="Arial" font-size="10" fill="black">S</text>
<text x="50" y="498.538" font-family="Arial" font-size="8" fill="gray" text-anchor="middle">(((27, 0), 1728))</text>
<text x="20" y="20" font-family="Arial" font-size="12" font-weight="bold">Legend:</text>
<circle cx="20" cy="36" r="4" fill="red" stroke="black"/>
<text x="30" y="40" font-family="Arial" font-size="10">Source</text>
<circle cx="20" cy="56" r="4" fill="blue" stroke="black"/>
<text x="30" y="60" font-family="Arial" font-size="10">Steiner</text>
<circle cx="20" cy="76" r="4" fill="green" stroke="black"/>
<text x="30" y="80" font-family="Arial" font-size="10">Terminal</text>
<text x="20" y="110" font-family="Arial" font-size="10" font-weight="bold">Statistics:</text>
<text x="20" y="125" font-family="Arial" font-size="9">Total Nodes: 13</text>
<text x="20" y="140" font-family="Arial" font-size="9">Terminals: 7</text>
<text x="20" y="155" font-family="Arial" font-size="9">Steiner: 5</text>
<text x="20" y="170" font-family="Arial" font-size="9">Wirelength: 7592</text>
</svg>
