<svg width="1000" height="1000" xmlns="http://www.w3.org/2000/svg">
<rect width="100%" height="100%" fill="white"/>
<defs>
<marker id="arrowhead" markerWidth="10" markerHeight="7" refX="9" refY="3.5" orient="auto">
<polygon points="0 0, 10 3.5, 0 7" fill="black"/>
</marker>
</defs>
<line x1="575.721" y1="603.846" x2="707.151" y2="603.846" stroke="red" stroke-width="2" marker-end="url(#arrowhead)"/>
<line x1="707.151" y1="603.846" x2="838.582" y2="950" stroke="green" stroke-width="2" marker-end="url(#arrowhead)"/>
<line x1="707.151" y1="603.846" x2="707.151" y2="119.231" stroke="red" stroke-width="2" marker-end="url(#arrowhead)"/>
<line x1="575.721" y1="603.846" x2="444.291" y2="603.846" stroke="red" stroke-width="2" marker-end="url(#arrowhead)"/>
<line x1="444.291" y1="603.846" x2="181.43" y2="603.846" stroke="red" stroke-width="2" marker-end="url(#arrowhead)"/>
<line x1="181.43" y1="603.846" x2="181.43" y2="50" stroke="red" stroke-width="2" marker-end="url(#arrowhead)"/>
<line x1="181.43" y1="603.846" x2="50" y2="673.077" stroke="orange" stroke-width="2" marker-end="url(#arrowhead)"/>
<line x1="444.291" y1="603.846" x2="444.291" y2="396.154" stroke="blue" stroke-width="2" marker-end="url(#arrowhead)"/>
<circle cx="707.151" cy="603.846" r="6" fill="blue" stroke="black" stroke-width="1"/>
<text x="715.151" y="607.846" font-family="Arial" font-size="10" fill="black">S2</text>
<text x="707.151" y="592.846" font-family="Arial" font-size="8" fill="gray" text-anchor="middle">(((1620, 0), 1216))</text>
<circle cx="838.582" cy="950" r="6" fill="green" stroke="black" stroke-width="1"/>
<text x="846.582" y="954" font-family="Arial" font-size="10" fill="black">T2</text>
<text x="838.582" y="939" font-family="Arial" font-size="8" fill="gray" text-anchor="middle">(((1863, 300), 1856))</text>
<circle cx="575.721" cy="603.846" r="8" fill="red" stroke="black" stroke-width="1"/>
<text x="585.721" y="607.846" font-family="Arial" font-size="10" fill="black">S</text>
<text x="575.721" y="590.846" font-family="Arial" font-size="8" fill="gray" text-anchor="middle">(((1377, 0), 1216))</text>
<circle cx="181.43" cy="603.846" r="6" fill="blue" stroke="black" stroke-width="1"/>
<text x="189.43" y="607.846" font-family="Arial" font-size="10" fill="black">S1</text>
<text x="181.43" y="592.846" font-family="Arial" font-size="8" fill="gray" text-anchor="middle">(((648, 0), 1216))</text>
<circle cx="181.43" cy="50" r="6" fill="green" stroke="black" stroke-width="1"/>
<text x="189.43" y="54" font-family="Arial" font-size="10" fill="black">T1</text>
<text x="181.43" y="39" font-family="Arial" font-size="8" fill="gray" text-anchor="middle">(((648, 0), 192))</text>
<circle cx="50" cy="673.077" r="6" fill="green" stroke="black" stroke-width="1"/>
<text x="58" y="677.077" font-family="Arial" font-size="10" fill="black">T3</text>
<text x="50" y="662.077" font-family="Arial" font-size="8" fill="gray" text-anchor="middle">(((405, 100), 1344))</text>
<circle cx="707.151" cy="119.231" r="6" fill="green" stroke="black" stroke-width="1"/>
<text x="715.151" y="123.231" font-family="Arial" font-size="10" fill="black">T4</text>
<text x="707.151" y="108.231" font-family="Arial" font-size="8" fill="gray" text-anchor="middle">(((1620, 0), 320))</text>
<circle cx="444.291" cy="396.154" r="6" fill="green" stroke="black" stroke-width="1"/>
<text x="452.291" y="400.154" font-family="Arial" font-size="10" fill="black">T5</text>
<text x="444.291" y="385.154" font-family="Arial" font-size="8" fill="gray" text-anchor="middle">(((1134, 200), 832))</text>
<circle cx="444.291" cy="603.846" r="6" fill="blue" stroke="black" stroke-width="1"/>
<text x="452.291" y="607.846" font-family="Arial" font-size="10" fill="black">S3</text>
<text x="444.291" y="592.846" font-family="Arial" font-size="8" fill="gray" text-anchor="middle">(((1134, 0), 1216))</text>
<text x="20" y="20" font-family="Arial" font-size="12" font-weight="bold">Legend:</text>
<circle cx="20" cy="36" r="4" fill="red" stroke="black"/>
<text x="30" y="40" font-family="Arial" font-size="10">Source</text>
<circle cx="20" cy="56" r="4" fill="blue" stroke="black"/>
<text x="30" y="60" font-family="Arial" font-size="10">Steiner</text>
<circle cx="20" cy="76" r="4" fill="green" stroke="black"/>
<text x="30" y="80" font-family="Arial" font-size="10">Terminal</text>
<text x="20" y="110" font-family="Arial" font-size="10" font-weight="bold">Statistics:</text>
<text x="20" y="125" font-family="Arial" font-size="9">Total Nodes: 9</text>
<text x="20" y="140" font-family="Arial" font-size="9">Terminals: 5</text>
<text x="20" y="155" font-family="Arial" font-size="9">Steiner: 3</text>
<text x="20" y="170" font-family="Arial" font-size="9">Wirelength: 5130</text>
</svg>
