<svg width="1000" height="1000" xmlns="http://www.w3.org/2000/svg">
<rect width="100%" height="100%" fill="white"/>
<defs>
<marker id="arrowhead" markerWidth="10" markerHeight="7" refX="9" refY="3.5" orient="auto">
<polygon points="0 0, 10 3.5, 0 7" fill="black"/>
</marker>
</defs>
<line x1="222.717" y1="50" x2="222.717" y2="131.192" stroke="black" stroke-width="2" marker-end="url(#arrowhead)"/>
<line x1="222.717" y1="131.192" x2="222.717" y2="383.133" stroke="black" stroke-width="2" marker-end="url(#arrowhead)"/>
<line x1="222.717" y1="383.133" x2="50" y2="698.059" stroke="black" stroke-width="2" marker-end="url(#arrowhead)"/>
<line x1="222.717" y1="383.133" x2="408.721" y2="383.133" stroke="black" stroke-width="2" marker-end="url(#arrowhead)"/>
<line x1="408.721" y1="383.133" x2="408.721" y2="446.118" stroke="black" stroke-width="2" marker-end="url(#arrowhead)"/>
<line x1="408.721" y1="383.133" x2="647.868" y2="383.133" stroke="black" stroke-width="2" marker-end="url(#arrowhead)"/>
<line x1="647.868" y1="383.133" x2="767.441" y2="383.133" stroke="black" stroke-width="2" marker-end="url(#arrowhead)"/>
<line x1="767.441" y1="383.133" x2="887.015" y2="383.133" stroke="black" stroke-width="2" marker-end="url(#arrowhead)"/>
<line x1="767.441" y1="383.133" x2="767.441" y2="635.074" stroke="black" stroke-width="2" marker-end="url(#arrowhead)"/>
<line x1="767.441" y1="635.074" x2="767.441" y2="950" stroke="black" stroke-width="2" marker-end="url(#arrowhead)"/>
<line x1="767.441" y1="635.074" x2="528.294" y2="635.074" stroke="black" stroke-width="2" marker-end="url(#arrowhead)"/>
<line x1="647.868" y1="383.133" x2="647.868" y2="194.177" stroke="black" stroke-width="2" marker-end="url(#arrowhead)"/>
<line x1="222.717" y1="131.192" x2="169.574" y2="131.192" stroke="black" stroke-width="2" marker-end="url(#arrowhead)"/>
<circle cx="767.441" cy="635.074" r="6" fill="blue" stroke="black" stroke-width="1"/>
<text x="775.441" y="639.074" font-family="Arial" font-size="10" fill="black">S2</text>
<text x="767.441" y="624.074" font-family="Arial" font-size="8" fill="gray" text-anchor="middle">((1863, 1216))</text>
<circle cx="887.015" cy="383.133" r="6" fill="green" stroke="black" stroke-width="1"/>
<text x="895.015" y="387.133" font-family="Arial" font-size="10" fill="black">T2</text>
<text x="887.015" y="372.133" font-family="Arial" font-size="8" fill="gray" text-anchor="middle">((2106, 704))</text>
<circle cx="222.717" cy="50" r="8" fill="red" stroke="black" stroke-width="1"/>
<text x="232.717" y="54" font-family="Arial" font-size="10" fill="black">S</text>
<text x="222.717" y="37" font-family="Arial" font-size="8" fill="gray" text-anchor="middle">((756, 27))</text>
<circle cx="767.441" cy="383.133" r="6" fill="blue" stroke="black" stroke-width="1"/>
<text x="775.441" y="387.133" font-family="Arial" font-size="10" fill="black">S1</text>
<text x="767.441" y="372.133" font-family="Arial" font-size="8" fill="gray" text-anchor="middle">((1863, 704))</text>
<circle cx="767.441" cy="950" r="6" fill="green" stroke="black" stroke-width="1"/>
<text x="775.441" y="954" font-family="Arial" font-size="10" fill="black">T1</text>
<text x="767.441" y="939" font-family="Arial" font-size="8" fill="gray" text-anchor="middle">((1863, 1856))</text>
<circle cx="222.717" cy="383.133" r="6" fill="blue" stroke="black" stroke-width="1"/>
<text x="230.717" y="387.133" font-family="Arial" font-size="10" fill="black">S3</text>
<text x="222.717" y="372.133" font-family="Arial" font-size="8" fill="gray" text-anchor="middle">((756, 704))</text>
<circle cx="528.294" cy="635.074" r="6" fill="green" stroke="black" stroke-width="1"/>
<text x="536.294" y="639.074" font-family="Arial" font-size="10" fill="black">T3</text>
<text x="528.294" y="624.074" font-family="Arial" font-size="8" fill="gray" text-anchor="middle">((1377, 1216))</text>
<circle cx="50" cy="698.059" r="6" fill="green" stroke="black" stroke-width="1"/>
<text x="58" y="702.059" font-family="Arial" font-size="10" fill="black">T4</text>
<text x="50" y="687.059" font-family="Arial" font-size="8" fill="gray" text-anchor="middle">((405, 1344))</text>
<circle cx="408.721" cy="446.118" r="6" fill="green" stroke="black" stroke-width="1"/>
<text x="416.721" y="450.118" font-family="Arial" font-size="10" fill="black">T5</text>
<text x="408.721" y="435.118" font-family="Arial" font-size="8" fill="gray" text-anchor="middle">((1134, 832))</text>
<circle cx="408.721" cy="383.133" r="6" fill="blue" stroke="black" stroke-width="1"/>
<text x="416.721" y="387.133" font-family="Arial" font-size="10" fill="black">S4</text>
<text x="408.721" y="372.133" font-family="Arial" font-size="8" fill="gray" text-anchor="middle">((1134, 704))</text>
<circle cx="647.868" cy="194.177" r="6" fill="green" stroke="black" stroke-width="1"/>
<text x="655.868" y="198.177" font-family="Arial" font-size="10" fill="black">T6</text>
<text x="647.868" y="183.177" font-family="Arial" font-size="8" fill="gray" text-anchor="middle">((1620, 320))</text>
<circle cx="647.868" cy="383.133" r="6" fill="blue" stroke="black" stroke-width="1"/>
<text x="655.868" y="387.133" font-family="Arial" font-size="10" fill="black">S5</text>
<text x="647.868" y="372.133" font-family="Arial" font-size="8" fill="gray" text-anchor="middle">((1620, 704))</text>
<circle cx="169.574" cy="131.192" r="6" fill="green" stroke="black" stroke-width="1"/>
<text x="177.574" y="135.192" font-family="Arial" font-size="10" fill="black">T7</text>
<text x="169.574" y="120.192" font-family="Arial" font-size="8" fill="gray" text-anchor="middle">((648, 192))</text>
<circle cx="222.717" cy="131.192" r="6" fill="blue" stroke="black" stroke-width="1"/>
<text x="230.717" y="135.192" font-family="Arial" font-size="10" fill="black">S6</text>
<text x="222.717" y="120.192" font-family="Arial" font-size="8" fill="gray" text-anchor="middle">((756, 192))</text>
<text x="20" y="20" font-family="Arial" font-size="12" font-weight="bold">Legend:</text>
<circle cx="20" cy="36" r="4" fill="red" stroke="black"/>
<text x="30" y="40" font-family="Arial" font-size="10">Source</text>
<circle cx="20" cy="56" r="4" fill="blue" stroke="black"/>
<text x="30" y="60" font-family="Arial" font-size="10">Steiner</text>
<circle cx="20" cy="76" r="4" fill="green" stroke="black"/>
<text x="30" y="80" font-family="Arial" font-size="10">Terminal</text>
<text x="20" y="110" font-family="Arial" font-size="10" font-weight="bold">Statistics:</text>
<text x="20" y="125" font-family="Arial" font-size="9">Total Nodes: 14</text>
<text x="20" y="140" font-family="Arial" font-size="9">Terminals: 7</text>
<text x="20" y="155" font-family="Arial" font-size="9">Steiner: 6</text>
<text x="20" y="170" font-family="Arial" font-size="9">Wirelength: 5276</text>
</svg>
