<svg viewBox="0 0 2187 2048" xmlns="http://www.w3.org/2000/svg">
  <polygon points="1944,128 1296,128 1296,64 972,64 972,256 324,256 324,384 162,384 162,576 81,576 81,1152 243,1152 243,1536 567,1536 567,1920 1215,1920 1215,1792 1539,1792 1539,1664 1701,1664 1701,1280 2025,1280 2025,1088 1944,1088 "
  fill="#88C0D0" stroke="black" opacity="0.5"/>
  <circle cx="1296" cy="64" r="10" />
  <circle cx="972" cy="256" r="10" />
  <circle cx="324" cy="384" r="10" />
  <circle cx="162" cy="576" r="10" />
  <circle cx="81" cy="1152" r="10" />
  <circle cx="243" cy="1536" r="10" />
  <circle cx="567" cy="1920" r="10" />
  <circle cx="1215" cy="1792" r="10" />
  <circle cx="1539" cy="1664" r="10" />
  <circle cx="1701" cy="1280" r="10" />
  <circle cx="2025" cy="1088" r="10" />
  <circle cx="1944" cy="128" r="10" />
  <polygon points="1944,128 972,128 972,256 324,256 324,384 243,384 243,1536 1701,1536 1701,1280 1944,1280 "
  fill="#D088C0" stroke="black" opacity="0.3"/>
  <polygon points="1296,64 972,64 972,128 1296,128 "
  fill="#D088C0" stroke="black" opacity="0.3"/>
  <polygon points="2025,1088 1944,1088 1944,1280 2025,1280 "
  fill="#D088C0" stroke="black" opacity="0.3"/>
  <polygon points="1539,1664 1701,1664 1701,1536 567,1536 567,1920 1215,1920 1215,1792 1539,1792 "
  fill="#D088C0" stroke="black" opacity="0.3"/>
  <polygon points="81,1152 243,1152 243,384 162,384 162,576 81,576 "
  fill="#D088C0" stroke="black" opacity="0.3"/>
</svg>
