<svg viewBox="0 0 2187 2048" xmlns="http://www.w3.org/2000/svg">
  <polygon points="1944,128 1728,128 1728,32 1620,32 1620,320 1458,320 1458,512 1296,512 1296,64 1242,64 1242,544 1134,544 1134,832 1080,832 1080,160 1053,160 1053,1408 972,1408 972,256 891,256 891,1600 837,1600 837,1312 810,1312 810,640 756,640 756,448 729,448 729,1024 648,1024 648,192 513,192 513,1056 486,1056 486,768 405,768 405,1344 324,1344 324,384 270,384 270,960 243,960 243,1536 162,1536 162,576 108,576 108,288 81,288 81,1152 27,1152 27,1728 351,1728 351,1824 567,1824 567,1920 999,1920 999,1984 1215,1984 1215,1792 1377,1792 1377,1216 1485,1216 1485,1472 1539,1472 1539,1664 1566,1664 1566,800 1701,800 1701,1280 1782,1280 1782,896 1863,896 1863,1856 1971,1856 1971,1568 2025,1568 2025,1088 2106,1088 2106,704 1944,704 "
  fill="#88C0D0" stroke="black" opacity="0.5"/>
  <circle cx="1728" cy="32" r="10" />
  <circle cx="1620" cy="320" r="10" />
  <circle cx="1458" cy="512" r="10" />
  <circle cx="1296" cy="64" r="10" />
  <circle cx="1242" cy="544" r="10" />
  <circle cx="1134" cy="832" r="10" />
  <circle cx="1080" cy="160" r="10" />
  <circle cx="1053" cy="1408" r="10" />
  <circle cx="972" cy="256" r="10" />
  <circle cx="891" cy="1600" r="10" />
  <circle cx="837" cy="1312" r="10" />
  <circle cx="810" cy="640" r="10" />
  <circle cx="756" cy="448" r="10" />
  <circle cx="729" cy="1024" r="10" />
  <circle cx="648" cy="192" r="10" />
  <circle cx="513" cy="1056" r="10" />
  <circle cx="486" cy="768" r="10" />
  <circle cx="405" cy="1344" r="10" />
  <circle cx="324" cy="384" r="10" />
  <circle cx="270" cy="960" r="10" />
  <circle cx="243" cy="1536" r="10" />
  <circle cx="162" cy="576" r="10" />
  <circle cx="108" cy="288" r="10" />
  <circle cx="81" cy="1152" r="10" />
  <circle cx="27" cy="1728" r="10" />
  <circle cx="351" cy="1824" r="10" />
  <circle cx="567" cy="1920" r="10" />
  <circle cx="999" cy="1984" r="10" />
  <circle cx="1215" cy="1792" r="10" />
  <circle cx="1377" cy="1216" r="10" />
  <circle cx="1485" cy="1472" r="10" />
  <circle cx="1539" cy="1664" r="10" />
  <circle cx="1566" cy="800" r="10" />
  <circle cx="1701" cy="1280" r="10" />
  <circle cx="1782" cy="896" r="10" />
  <circle cx="1863" cy="1856" r="10" />
  <circle cx="1971" cy="1568" r="10" />
  <circle cx="2025" cy="1088" r="10" />
  <circle cx="2106" cy="704" r="10" />
  <circle cx="1944" cy="128" r="10" />
  <polygon points="756,448 729,448 729,1024 810,1024 810,640 756,640 "
  fill="#D088C0" stroke="black" opacity="0.3"/>
  <polygon points="27,1728 243,1728 243,1536 162,1536 162,576 108,576 108,288 81,288 81,1152 27,1152 "
  fill="#D088C0" stroke="black" opacity="0.3"/>
  <polygon points="405,1344 243,1344 243,1728 351,1728 351,1824 567,1824 567,1920 891,1920 891,1600 837,1600 837,1312 810,1312 810,1024 648,1024 648,192 513,192 513,1056 405,1056 "
  fill="#D088C0" stroke="black" opacity="0.3"/>
  <polygon points="270,960 243,960 243,1344 324,1344 324,384 270,384 "
  fill="#D088C0" stroke="black" opacity="0.3"/>
  <polygon points="486,768 405,768 405,1056 486,1056 "
  fill="#D088C0" stroke="black" opacity="0.3"/>
  <polygon points="1377,1216 1566,1216 1566,800 1134,800 1134,832 1053,832 1053,1408 891,1408 891,1920 999,1920 999,1984 1215,1984 1215,1792 1377,1792 "
  fill="#D088C0" stroke="black" opacity="0.3"/>
  <polygon points="1701,1280 1782,1280 1782,896 1701,896 "
  fill="#D088C0" stroke="black" opacity="0.3"/>
  <polygon points="1134,800 1701,800 1701,896 1863,896 1863,1856 1971,1856 1971,1568 2025,1568 2025,1088 2106,1088 2106,704 1944,704 1944,128 1728,128 1728,32 1620,32 1620,320 1458,320 1458,512 1242,512 1242,544 1134,544 "
  fill="#D088C0" stroke="black" opacity="0.3"/>
  <polygon points="1539,1664 1566,1664 1566,1216 1485,1216 1485,1472 1539,1472 "
  fill="#D088C0" stroke="black" opacity="0.3"/>
  <polygon points="972,256 891,256 891,1408 972,1408 "
  fill="#D088C0" stroke="black" opacity="0.3"/>
  <polygon points="1080,160 1053,160 1053,832 1080,832 "
  fill="#D088C0" stroke="black" opacity="0.3"/>
  <polygon points="1296,64 1242,64 1242,512 1296,512 "
  fill="#D088C0" stroke="black" opacity="0.3"/>
</svg>
