<svg viewBox="0 0 2187 2048" xmlns="http://www.w3.org/2000/svg">
  <polygon points="1944,128 1728,128 1728,32 1296,32 1296,64 432,64 432,96 1080,96 1080,160 648,160 648,192 972,192 972,256 108,256 108,288 1620,288 1620,320 324,320 324,384 756,384 756,448 1458,448 1458,512 1242,512 1242,544 162,544 162,576 810,576 810,640 594,640 594,672 486,672 486,768 1566,768 1566,800 1134,800 1134,832 918,832 918,928 270,928 270,960 729,960 729,1024 513,1024 513,1056 1161,1056 1161,1120 81,1120 81,1152 1377,1152 1377,1216 1701,1216 1701,1280 837,1280 837,1312 405,1312 405,1344 1053,1344 1053,1408 189,1408 189,1440 1485,1440 1485,1472 243,1472 243,1536 891,1536 891,1600 1539,1600 1539,1664 1323,1664 1323,1696 27,1696 27,1728 1215,1728 1215,1792 351,1792 351,1824 567,1824 567,1920 1647,1920 1647,1952 999,1952 999,1984 1863,1984 1863,1856 1971,1856 1971,1568 1809,1568 1809,1184 2025,1184 2025,1088 1782,1088 1782,896 2106,896 2106,704 1890,704 1890,608 2052,608 2052,416 1944,416 "
  fill="#88C0D0" stroke="black" opacity="0.5"/>
  <circle cx="1728" cy="32" r="10" />
  <circle cx="1296" cy="64" r="10" />
  <circle cx="432" cy="96" r="10" />
  <circle cx="1080" cy="160" r="10" />
  <circle cx="648" cy="192" r="10" />
  <circle cx="972" cy="256" r="10" />
  <circle cx="108" cy="288" r="10" />
  <circle cx="1620" cy="320" r="10" />
  <circle cx="324" cy="384" r="10" />
  <circle cx="756" cy="448" r="10" />
  <circle cx="1458" cy="512" r="10" />
  <circle cx="1242" cy="544" r="10" />
  <circle cx="162" cy="576" r="10" />
  <circle cx="810" cy="640" r="10" />
  <circle cx="594" cy="672" r="10" />
  <circle cx="486" cy="768" r="10" />
  <circle cx="1566" cy="800" r="10" />
  <circle cx="1134" cy="832" r="10" />
  <circle cx="918" cy="928" r="10" />
  <circle cx="270" cy="960" r="10" />
  <circle cx="729" cy="1024" r="10" />
  <circle cx="513" cy="1056" r="10" />
  <circle cx="1161" cy="1120" r="10" />
  <circle cx="81" cy="1152" r="10" />
  <circle cx="1377" cy="1216" r="10" />
  <circle cx="1701" cy="1280" r="10" />
  <circle cx="837" cy="1312" r="10" />
  <circle cx="405" cy="1344" r="10" />
  <circle cx="1053" cy="1408" r="10" />
  <circle cx="189" cy="1440" r="10" />
  <circle cx="1485" cy="1472" r="10" />
  <circle cx="243" cy="1536" r="10" />
  <circle cx="891" cy="1600" r="10" />
  <circle cx="1539" cy="1664" r="10" />
  <circle cx="1323" cy="1696" r="10" />
  <circle cx="27" cy="1728" r="10" />
  <circle cx="1215" cy="1792" r="10" />
  <circle cx="351" cy="1824" r="10" />
  <circle cx="567" cy="1920" r="10" />
  <circle cx="1647" cy="1952" r="10" />
  <circle cx="999" cy="1984" r="10" />
  <circle cx="1863" cy="1856" r="10" />
  <circle cx="1971" cy="1568" r="10" />
  <circle cx="1809" cy="1184" r="10" />
  <circle cx="2025" cy="1088" r="10" />
  <circle cx="1782" cy="896" r="10" />
  <circle cx="2106" cy="704" r="10" />
  <circle cx="1890" cy="608" r="10" />
  <circle cx="2052" cy="416" r="10" />
  <circle cx="1944" cy="128" r="10" />
  <polygon points="81,1152 27,1152 27,1728 351,1728 351,1824 567,1824 567,1920 999,1920 999,1984 1863,1984 1863,1856 1971,1856 1971,1568 2025,1568 2025,1088 2106,1088 2106,704 2052,704 2052,416 1944,416 1944,128 1728,128 1728,32 1296,32 1296,64 432,64 432,96 108,96 108,288 81,288 "
  fill="#D088C0" stroke="black" opacity="0.3"/>
</svg>
