<svg xmlns="http://www.w3.org/2000/svg" viewBox="0 0 2187 2048"><polygon fill="#88C0D0" stroke="#000" points="486 768 972 768 972 256 1458 256 1458 512 1701 512 1701 1280 1215 1280 1215 1792 243 1792 243 1536 486 1536" opacity=".5"/><circle cx="972" cy="256" r="10"/><circle cx="1458" cy="512" r="10"/><circle cx="1701" cy="1280" r="10"/><circle cx="1215" cy="1792" r="10"/><circle cx="243" cy="1536" r="10"/><circle cx="486" cy="768" r="10"/><circle cx="1215" cy="1280" r="10" fill="red"/><circle cx="486" cy="768" r="10" fill="green"/><circle cx="486" cy="1280" r="10" fill="#00f"/><circle cx="972" cy="768" r="10" fill="red"/><circle cx="1701" cy="1280" r="10" fill="green"/><circle cx="972" cy="1280" r="10" fill="#00f"/><circle cx="486" cy="1536" r="10" fill="red"/><circle cx="1215" cy="1792" r="10" fill="green"/><circle cx="486" cy="1792" r="10" fill="#00f"/><polygon fill="red" stroke="#000" points="972 256 1458 256 1458 512 972 512" opacity=".3"/><polygon fill="#00f" stroke="#000" points="1701 1280 972 1280 972 512 1701 512" opacity=".3"/><polygon fill="#ff0" stroke="#000" points="486 768 972 768 972 1280 486 1280" opacity=".3"/><polygon fill="green" stroke="#000" points="486 1280 1215 1280 1215 1792 486 1792" opacity=".3"/><polygon fill="red" stroke="#000" points="243 1536 486 1536 486 1792 243 1792" opacity=".3"/></svg>