<svg width="440" height="440" xmlns="http://www.w3.org/2000/svg">
<line x1="20" y1="20" x2="420" y2="20" stroke="gray" stroke-width="1"/>
<line x1="20" y1="70" x2="420" y2="70" stroke="gray" stroke-width="1"/>
<line x1="20" y1="120" x2="420" y2="120" stroke="gray" stroke-width="1"/>
<line x1="20" y1="170" x2="420" y2="170" stroke="gray" stroke-width="1"/>
<line x1="20" y1="220" x2="420" y2="220" stroke="gray" stroke-width="1"/>
<line x1="20" y1="270" x2="420" y2="270" stroke="gray" stroke-width="1"/>
<line x1="20" y1="320" x2="420" y2="320" stroke="gray" stroke-width="1"/>
<line x1="20" y1="370" x2="420" y2="370" stroke="gray" stroke-width="1"/>
<line x1="20" y1="420" x2="420" y2="420" stroke="gray" stroke-width="1"/>
<line x1="20" y1="20" x2="20" y2="420" stroke="gray" stroke-width="1"/>
<line x1="70" y1="20" x2="70" y2="420" stroke="gray" stroke-width="1"/>
<line x1="120" y1="20" x2="120" y2="420" stroke="gray" stroke-width="1"/>
<line x1="170" y1="20" x2="170" y2="420" stroke="gray" stroke-width="1"/>
<line x1="220" y1="20" x2="220" y2="420" stroke="gray" stroke-width="1"/>
<line x1="270" y1="20" x2="270" y2="420" stroke="gray" stroke-width="1"/>
<line x1="320" y1="20" x2="320" y2="420" stroke="gray" stroke-width="1"/>
<line x1="370" y1="20" x2="370" y2="420" stroke="gray" stroke-width="1"/>
<line x1="420" y1="20" x2="420" y2="420" stroke="gray" stroke-width="1"/>
<circle cx="45" cy="45" r="10" fill="red"/>
<text x="45" y="49" font-size="10" text-anchor="middle">0</text>
<circle cx="95" cy="45" r="10" fill="red"/>
<text x="95" y="49" font-size="10" text-anchor="middle">1</text>
<circle cx="145" cy="45" r="7" fill="blue"/>
<text x="145" y="49" font-size="10" text-anchor="middle">2</text>
<circle cx="195" cy="45" r="7" fill="blue"/>
<text x="195" y="49" font-size="10" text-anchor="middle">3</text>
<circle cx="245" cy="45" r="7" fill="blue"/>
<text x="245" y="49" font-size="10" text-anchor="middle">4</text>
<circle cx="295" cy="45" r="10" fill="green"/>
<text x="295" y="49" font-size="10" text-anchor="middle">5</text>
<circle cx="345" cy="45" r="5" fill="black"/>
<text x="345" y="49" font-size="10" text-anchor="middle">6</text>
<circle cx="395" cy="45" r="5" fill="black"/>
<text x="395" y="49" font-size="10" text-anchor="middle">7</text>
<circle cx="45" cy="95" r="5" fill="black"/>
<text x="45" y="99" font-size="10" text-anchor="middle">8</text>
<circle cx="95" cy="95" r="5" fill="black"/>
<text x="95" y="99" font-size="10" text-anchor="middle">9</text>
<circle cx="145" cy="95" r="7" fill="blue"/>
<text x="145" y="99" font-size="10" text-anchor="middle">10</text>
<circle cx="195" cy="95" r="5" fill="black"/>
<text x="195" y="99" font-size="10" text-anchor="middle">11</text>
<circle cx="245" cy="95" r="5" fill="black"/>
<text x="245" y="99" font-size="10" text-anchor="middle">12</text>
<circle cx="295" cy="95" r="5" fill="black"/>
<text x="295" y="99" font-size="10" text-anchor="middle">13</text>
<circle cx="345" cy="95" r="5" fill="black"/>
<text x="345" y="99" font-size="10" text-anchor="middle">14</text>
<circle cx="395" cy="95" r="5" fill="black"/>
<text x="395" y="99" font-size="10" text-anchor="middle">15</text>
<circle cx="45" cy="145" r="5" fill="black"/>
<text x="45" y="149" font-size="10" text-anchor="middle">16</text>
<circle cx="95" cy="145" r="5" fill="black"/>
<text x="95" y="149" font-size="10" text-anchor="middle">17</text>
<circle cx="145" cy="145" r="7" fill="blue"/>
<text x="145" y="149" font-size="10" text-anchor="middle">18</text>
<circle cx="195" cy="145" r="5" fill="black"/>
<text x="195" y="149" font-size="10" text-anchor="middle">19</text>
<circle cx="245" cy="145" r="5" fill="black"/>
<text x="245" y="149" font-size="10" text-anchor="middle">20</text>
<circle cx="295" cy="145" r="5" fill="black"/>
<text x="295" y="149" font-size="10" text-anchor="middle">21</text>
<circle cx="345" cy="145" r="5" fill="black"/>
<text x="345" y="149" font-size="10" text-anchor="middle">22</text>
<circle cx="395" cy="145" r="5" fill="black"/>
<text x="395" y="149" font-size="10" text-anchor="middle">23</text>
<circle cx="45" cy="195" r="5" fill="black"/>
<text x="45" y="199" font-size="10" text-anchor="middle">24</text>
<circle cx="95" cy="195" r="7" fill="blue"/>
<text x="95" y="199" font-size="10" text-anchor="middle">25</text>
<circle cx="145" cy="195" r="10" fill="green"/>
<text x="145" y="199" font-size="10" text-anchor="middle">26</text>
<circle cx="195" cy="195" r="5" fill="black"/>
<text x="195" y="199" font-size="10" text-anchor="middle">27</text>
<circle cx="245" cy="195" r="5" fill="black"/>
<text x="245" y="199" font-size="10" text-anchor="middle">28</text>
<circle cx="295" cy="195" r="5" fill="black"/>
<text x="295" y="199" font-size="10" text-anchor="middle">29</text>
<circle cx="345" cy="195" r="5" fill="black"/>
<text x="345" y="199" font-size="10" text-anchor="middle">30</text>
<circle cx="395" cy="195" r="5" fill="black"/>
<text x="395" y="199" font-size="10" text-anchor="middle">31</text>
<circle cx="45" cy="245" r="5" fill="black"/>
<text x="45" y="249" font-size="10" text-anchor="middle">32</text>
<circle cx="95" cy="245" r="10" fill="green"/>
<text x="95" y="249" font-size="10" text-anchor="middle">33</text>
<circle cx="145" cy="245" r="5" fill="black"/>
<text x="145" y="249" font-size="10" text-anchor="middle">34</text>
<circle cx="195" cy="245" r="5" fill="black"/>
<text x="195" y="249" font-size="10" text-anchor="middle">35</text>
<circle cx="245" cy="245" r="10" fill="red"/>
<text x="245" y="249" font-size="10" text-anchor="middle">36</text>
<circle cx="295" cy="245" r="7" fill="blue"/>
<text x="295" y="249" font-size="10" text-anchor="middle">37</text>
<circle cx="345" cy="245" r="7" fill="blue"/>
<text x="345" y="249" font-size="10" text-anchor="middle">38</text>
<circle cx="395" cy="245" r="7" fill="blue"/>
<text x="395" y="249" font-size="10" text-anchor="middle">39</text>
<circle cx="45" cy="295" r="5" fill="black"/>
<text x="45" y="299" font-size="10" text-anchor="middle">40</text>
<circle cx="95" cy="295" r="5" fill="black"/>
<text x="95" y="299" font-size="10" text-anchor="middle">41</text>
<circle cx="145" cy="295" r="5" fill="black"/>
<text x="145" y="299" font-size="10" text-anchor="middle">42</text>
<circle cx="195" cy="295" r="5" fill="black"/>
<text x="195" y="299" font-size="10" text-anchor="middle">43</text>
<circle cx="245" cy="295" r="5" fill="black"/>
<text x="245" y="299" font-size="10" text-anchor="middle">44</text>
<circle cx="295" cy="295" r="7" fill="blue"/>
<text x="295" y="299" font-size="10" text-anchor="middle">45</text>
<circle cx="345" cy="295" r="5" fill="black"/>
<text x="345" y="299" font-size="10" text-anchor="middle">46</text>
<circle cx="395" cy="295" r="10" fill="green"/>
<text x="395" y="299" font-size="10" text-anchor="middle">47</text>
<circle cx="45" cy="345" r="5" fill="black"/>
<text x="45" y="349" font-size="10" text-anchor="middle">48</text>
<circle cx="95" cy="345" r="5" fill="black"/>
<text x="95" y="349" font-size="10" text-anchor="middle">49</text>
<circle cx="145" cy="345" r="5" fill="black"/>
<text x="145" y="349" font-size="10" text-anchor="middle">50</text>
<circle cx="195" cy="345" r="5" fill="black"/>
<text x="195" y="349" font-size="10" text-anchor="middle">51</text>
<circle cx="245" cy="345" r="5" fill="black"/>
<text x="245" y="349" font-size="10" text-anchor="middle">52</text>
<circle cx="295" cy="345" r="7" fill="blue"/>
<text x="295" y="349" font-size="10" text-anchor="middle">53</text>
<circle cx="345" cy="345" r="5" fill="black"/>
<text x="345" y="349" font-size="10" text-anchor="middle">54</text>
<circle cx="395" cy="345" r="5" fill="black"/>
<text x="395" y="349" font-size="10" text-anchor="middle">55</text>
<circle cx="45" cy="395" r="5" fill="black"/>
<text x="45" y="399" font-size="10" text-anchor="middle">56</text>
<circle cx="95" cy="395" r="5" fill="black"/>
<text x="95" y="399" font-size="10" text-anchor="middle">57</text>
<circle cx="145" cy="395" r="5" fill="black"/>
<text x="145" y="399" font-size="10" text-anchor="middle">58</text>
<circle cx="195" cy="395" r="5" fill="black"/>
<text x="195" y="399" font-size="10" text-anchor="middle">59</text>
<circle cx="245" cy="395" r="5" fill="black"/>
<text x="245" y="399" font-size="10" text-anchor="middle">60</text>
<circle cx="295" cy="395" r="10" fill="green"/>
<text x="295" y="399" font-size="10" text-anchor="middle">61</text>
<circle cx="345" cy="395" r="5" fill="black"/>
<text x="345" y="399" font-size="10" text-anchor="middle">62</text>
<circle cx="395" cy="395" r="5" fill="black"/>
<text x="395" y="399" font-size="10" text-anchor="middle">63</text>
<line x1="45" y1="45" x2="95" y2="45" stroke="orange" stroke-width="5" opacity="0.5"/>
<line x1="95" y1="45" x2="145" y2="45" stroke="orange" stroke-width="5" opacity="0.5"/>
<line x1="245" y1="45" x2="295" y2="45" stroke="orange" stroke-width="5" opacity="0.5"/>
<line x1="145" y1="145" x2="145" y2="195" stroke="orange" stroke-width="5" opacity="0.5"/>
<line x1="95" y1="195" x2="145" y2="195" stroke="orange" stroke-width="5" opacity="0.5"/>
<line x1="95" y1="195" x2="95" y2="245" stroke="orange" stroke-width="5" opacity="0.5"/>
<line x1="245" y1="245" x2="295" y2="245" stroke="orange" stroke-width="5" opacity="0.5"/>
<line x1="395" y1="245" x2="395" y2="295" stroke="orange" stroke-width="5" opacity="0.5"/>
<line x1="295" y1="345" x2="295" y2="395" stroke="orange" stroke-width="5" opacity="0.5"/>
<line x1="145" y1="45" x2="195" y2="45" stroke="orange" stroke-width="5" opacity="0.5"/>
<line x1="145" y1="45" x2="145" y2="95" stroke="orange" stroke-width="5" opacity="0.5"/>
<line x1="195" y1="45" x2="245" y2="45" stroke="orange" stroke-width="5" opacity="0.5"/>
<line x1="145" y1="95" x2="145" y2="145" stroke="orange" stroke-width="5" opacity="0.5"/>
<line x1="295" y1="245" x2="345" y2="245" stroke="orange" stroke-width="5" opacity="0.5"/>
<line x1="295" y1="245" x2="295" y2="295" stroke="orange" stroke-width="5" opacity="0.5"/>
<line x1="345" y1="245" x2="395" y2="245" stroke="orange" stroke-width="5" opacity="0.5"/>
<line x1="295" y1="295" x2="295" y2="345" stroke="orange" stroke-width="5" opacity="0.5"/>
</svg>
